<svg width="210" height="50" viewBox="0 0 1677 388" fill="none" xmlns="http://www.w3.org/2000/svg">
<g clip-path="url(#clip0_15_3)">
<path d="M358.029 193.97C358.029 154.087 325.582 121.641 285.7 121.641L250.273 121.642L250.275 169.861L285.7 169.861C298.994 169.86 309.81 180.676 309.809 193.97C309.809 207.265 298.994 218.08 285.699 218.08L266.299 218.081L242.189 202.007L218.08 218.08L153.836 218.08L153.832 266.301L218.08 266.3L242.19 282.374L266.3 266.3L285.699 266.3C325.581 266.3 358.029 233.852 358.029 193.97Z" fill="#69ABDF"/>
<path d="M266.3 218.08L266.298 121.641L243.567 98.9102L218.08 169.86V218.08H266.3Z" fill="#1D83C7"/>
<path d="M266.299 285.699L266.3 266.3L218.08 266.3L218.079 285.699C218.08 298.993 207.264 309.81 193.97 309.808C180.676 309.81 169.86 298.993 169.862 285.699L169.86 218.08L147.129 195.349L121.641 266.298L121.641 285.699C121.641 325.582 154.088 358.028 193.97 358.028C233.853 358.028 266.299 325.582 266.299 285.699V285.699Z" fill="#1D83C7"/>
<path d="M121.641 266.298L169.86 218.079V102.241C169.861 88.9476 180.676 78.1327 193.97 78.1312C207.265 78.1312 218.08 88.9461 218.08 102.241V169.859L266.298 121.641L266.3 102.241C266.3 62.3588 233.854 29.9127 193.97 29.9112C154.087 29.9112 121.641 62.3573 121.64 102.241L121.641 218.081L110.925 242.189L121.641 266.298Z" fill="#086EB5"/>
<path d="M121.642 218.081L102.242 218.08C88.947 218.08 78.1321 207.265 78.1321 193.97C78.1321 180.674 88.947 169.859 102.242 169.86L218.031 169.861L218.031 121.641L102.242 121.642C62.3597 121.642 29.9136 154.089 29.9136 193.971C29.9136 233.853 62.3597 266.3 102.242 266.3L121.642 266.298L121.642 218.081Z" fill="#98CAEE"/>
</g>
<g style="mix-blend-mode:multiply" clip-path="url(#clip1_15_3)">
<path d="M309.975 77.9629C281.774 49.7617 235.888 49.7617 207.687 77.9629L182.638 103.014L216.734 137.109L241.784 112.06C251.183 102.658 266.479 102.658 275.878 112.06C285.279 121.461 285.279 136.755 275.878 146.156L262.162 159.875L233.747 165.557L228.065 193.97L182.638 239.397L216.732 273.498L262.162 228.066L290.576 222.384L296.259 193.97L309.975 180.253C338.176 152.052 338.176 106.164 309.975 77.9629Z" fill="#69ABDF"/>
<path d="M262.162 159.873L193.969 91.6815H161.822L193.969 159.873L228.065 193.97L262.162 159.873Z" fill="#1D83C7"/>
<path d="M309.975 207.688L296.259 193.969L262.162 228.066L275.879 241.785C285.28 251.184 285.28 266.481 275.879 275.88C266.48 285.281 251.183 285.281 241.784 275.88L193.969 228.066H161.822L193.969 296.258L207.687 309.976C235.888 338.178 281.774 338.178 309.975 309.976C338.177 281.775 338.177 235.889 309.975 207.688V207.688Z" fill="#1D83C7"/>
<path d="M193.969 296.257V228.066L112.059 146.156C102.66 136.755 102.66 121.461 112.059 112.059C121.46 102.658 136.755 102.658 146.156 112.059L193.969 159.873V91.6814L180.252 77.9627C152.051 49.7616 106.166 49.7616 77.9624 77.9627C49.7612 106.164 49.7612 152.05 77.9624 180.253L159.874 262.163L169.345 286.787L193.969 296.257Z" fill="#086EB5"/>
<path d="M159.874 262.163L146.156 275.879C136.755 285.28 121.46 285.28 112.059 275.879C102.658 266.478 102.658 251.184 112.059 241.783L193.935 159.908L159.839 125.812L77.9643 207.688C49.7632 235.889 49.7632 281.775 77.9643 309.976C106.165 338.177 152.051 338.177 180.252 309.976L193.969 296.257L159.874 262.163Z" fill="#98CAEE"/>
</g>
<path d="M491.7 264.8C520.95 264.8 542.775 250.625 554.7 229.25L535.125 217.1C526.8 233.525 510.825 244.775 491.7 244.775C460.65 244.775 441.3 220.25 441.3 187.625C441.3 155 460.65 130.475 491.7 130.475C510.6 130.475 526.575 141.5 535.125 157.925L554.7 145.775C542.775 124.4 520.95 110.225 491.7 110.225C445.35 110.225 417.9 144.875 417.9 187.625C417.9 230.15 445.35 264.8 491.7 264.8ZM624.04 264.8C655.99 264.8 682.09 238.7 682.09 206.75C682.09 174.8 655.99 148.7 624.04 148.7C591.865 148.7 565.99 174.8 565.99 206.75C565.99 238.7 591.865 264.8 624.04 264.8ZM624.715 244.55C603.79 244.55 588.04 228.35 588.04 206.75C588.04 185.15 603.79 168.725 624.715 168.725C645.415 168.725 661.39 185.15 661.39 206.75C661.39 228.35 645.415 244.55 624.715 244.55ZM835.553 148.7C816.878 148.7 802.253 157.25 794.378 169.85C786.278 157.025 772.553 148.7 756.128 148.7C743.303 148.7 731.153 154.775 722.828 164.45V150.5H701.453V263H722.828V199.1C722.828 181.55 735.203 168.5 751.628 168.5C768.053 168.5 780.653 181.55 780.653 198.875V263H802.253V199.1C802.253 181.55 814.628 168.5 831.053 168.5C847.478 168.5 859.853 181.55 859.853 198.875V263H881.678V198.2C881.678 170.525 862.328 148.7 835.553 148.7ZM1041.44 148.7C1022.76 148.7 1008.14 157.25 1000.26 169.85C992.162 157.025 978.437 148.7 962.012 148.7C949.187 148.7 937.037 154.775 928.712 164.45V150.5H907.337V263H928.712V199.1C928.712 181.55 941.087 168.5 957.512 168.5C973.937 168.5 986.537 181.55 986.537 198.875V263H1008.14V199.1C1008.14 181.55 1020.51 168.5 1036.94 168.5C1053.36 168.5 1065.74 181.55 1065.74 198.875V263H1087.56V198.2C1087.56 170.525 1068.21 148.7 1041.44 148.7ZM1222.39 200.675C1220.14 170.975 1194.94 147.575 1164.79 147.35C1132.61 147.575 1106.74 173.45 1106.74 205.625C1106.74 211.925 1107.64 218.225 1109.66 224.075C1117.76 247.7 1140.94 263.45 1164.79 263.675C1199.21 263.675 1217.66 236.9 1221.71 226.1L1203.49 220.025C1200.11 229.7 1185.04 244.1 1164.79 244.1C1149.26 244.1 1135.99 233.975 1131.26 220.25L1222.39 203.825C1222.61 202.925 1222.39 202.025 1222.39 200.675ZM1128.34 203.375C1128.56 201.35 1128.56 199.775 1128.56 199.1C1130.14 181.55 1144.76 167.375 1162.31 166.7C1178.06 166.25 1192.69 176.375 1198.09 191L1128.34 203.375ZM1296 148.7C1283.17 148.7 1271.02 154.775 1262.7 164.45V150.5H1241.32V263H1262.7V199.1C1262.7 181.55 1275.07 168.5 1291.5 168.5C1307.92 168.5 1320.3 181.55 1320.3 198.875V263H1342.12V198.2C1342.12 170.525 1322.77 148.7 1296 148.7ZM1457.48 95.375V162.875C1447.35 154.1 1434.08 148.7 1419.45 148.7C1387.28 148.7 1361.4 174.8 1361.4 206.75C1361.4 238.7 1387.28 264.8 1419.45 264.8C1434.08 264.8 1447.35 259.4 1457.48 250.625V263H1478.85V95.375H1457.48ZM1419.9 244.55C1398.98 244.55 1383.23 228.35 1383.23 206.75C1383.23 185.15 1398.98 168.95 1419.9 168.95C1440.83 168.95 1456.58 185.15 1456.58 206.75C1456.58 228.35 1440.83 244.55 1419.9 244.55ZM1595.68 150.5V162.875C1585.56 154.1 1572.28 148.7 1557.66 148.7C1525.48 148.7 1499.61 174.8 1499.61 206.75C1499.61 238.7 1525.48 264.8 1557.66 264.8C1572.28 264.8 1585.56 259.4 1595.68 250.625V263H1617.06V150.5H1595.68ZM1558.11 244.55C1537.41 244.55 1521.43 228.35 1521.43 206.75C1521.43 185.15 1537.41 168.95 1558.11 168.95C1579.03 168.95 1594.78 185.15 1594.78 206.75C1594.78 228.35 1579.03 244.55 1558.11 244.55Z" fill="black"/>
<defs>
<clipPath id="clip0_15_3">
<rect width="274.315" height="274.315" fill="white" transform="translate(193.97) rotate(45)"/>
</clipPath>
<clipPath id="clip1_15_3">
<rect width="274.315" height="274.315" fill="white" transform="translate(56.8115 56.8125)"/>
</clipPath>
</defs>
</svg>
